<?xml version="1.0" standalone="no"?><!DOCTYPE svg PUBLIC "-//W3C//DTD SVG 1.1//EN" "http://www.w3.org/Graphics/SVG/1.1/DTD/svg11.dtd"><svg t="1608975604614" class="icon" viewBox="0 0 1200 1024" version="1.1" xmlns="http://www.w3.org/2000/svg" p-id="1501" xmlns:xlink="http://www.w3.org/1999/xlink" width="234.375" height="200"><defs><style type="text/css"></style></defs><path d="M1039.32469 679.830069v157.519448a116.665379 116.665379 0 0 1-116.630069 116.453517H274.39669a116.665379 116.665379 0 0 1-116.594759-116.453517v-226.021517h85.733517L121.82069 450.348138 0 611.328h85.768828v224.326621c0 102.753103 84.038621 188.345379 188.627862 188.345379H924.424828c102.894345 0 188.663172-83.897379 188.663172-188.345379v-149.009655l-32.591448 44.526344-41.171862-51.341241z m72.033103-229.481931v-262.002759c0-102.753103-84.038621-188.345379-188.663172-188.345379H274.39669C171.502345 0 85.804138 83.897379 85.804138 188.345379v190.075587l36.016552-47.916138 36.016551 47.916138V188.345379A116.665379 116.665379 0 0 1 274.361379 71.927172H924.424828a116.665379 116.665379 0 0 1 116.630069 116.418207v262.002759H958.675862l82.343724 109.60331 39.441655 51.376552 32.591449-44.526345L1200.551724 450.348138h-89.193931z m-528.242759-196.925793h-30.861241v186.650483c0 41.101241-10.27531 49.681655-56.602483 53.106758l-32.591448 1.694897-15.430621-56.496552 32.591449-1.730207c13.735724-1.694897 20.585931-3.425103 20.585931-20.550621V251.762759H286.366897V200.350897h296.712827v53.071448z m-114.899862 178.105379H312.143448V279.128276h156.071724v152.399448zM420.193103 325.349517h-56.602482v56.496552H420.193103v-56.496552z m480.22069 160.979862h-277.857103v-286.013793H900.413793v286.013793z m-54.872276-229.481931h-169.807448v172.950069h169.807448V256.847448z m-147.49131 152.399449V275.703172h128.600276v133.543725H698.085517z m44.561655-87.322483v41.101241h39.476966V321.924414H742.576552z m-147.49131 465.743448l-34.286345 47.986759c-22.316138-15.430621-41.171862-34.251034-58.33269-54.801655-17.125517 20.550621-37.711448 37.676138-63.452689 56.496551l-29.131035-29.095724v25.670621H360.165517v-66.771862c-10.27531 3.425103-20.585931 6.850207-29.166345 10.24-13.700414 5.15531-24.011034 10.310621-30.861241 15.43062l-20.585931-53.071448c12.005517-8.580414 15.430621-15.430621 15.430621-32.556138v-152.399448l48.022069 1.730207v159.249655l18.891034-5.15531v-181.495173l49.716966 1.694897v113.028414c20.585931-32.520828 36.016552-75.352276 44.596965-114.758621l56.602483 5.15531c-3.425103 12.005517-5.15531 22.245517-8.580414 32.556138h80.613517v54.801655h-12.005517c-6.850207 44.491034-17.160828 82.167172-36.016552 114.723311 13.700414 17.125517 34.286345 34.251034 58.29738 51.376551z m-185.202759-1.694896c24.011034-15.39531 44.561655-30.825931 60.027586-49.646345-10.310621-17.125517-20.585931-34.251034-25.741241-51.376552-3.425103 5.12-8.580414 12.005517-12.005517 17.125517l-20.585931-46.256552v130.153932h-1.694897z m70.302897-166.099863l-1.730207 5.155311c3.460414 22.245517 10.310621 42.796138 22.316138 63.346758 8.580414-20.550621 13.700414-42.796138 17.160827-66.771862H480.22069v-1.730207z m425.348413-54.801655c-1.730207 89.05269-3.425103 179.800276-5.15531 214.051311-1.730207 32.556138-17.160828 42.831448-49.752276 46.256551l-20.55062 1.694897-17.160828-53.071448 17.160828-1.730207c17.125517-1.694897 24.011034-3.425103 24.011034-23.975724l1.694897-46.256552c-24.011034 46.256552-51.447172 85.662897-94.313931 125.033931l-37.746759-37.676138c61.757793-47.951448 111.474759-114.72331 135.485793-174.644966v-1.730206H840.386207c-18.855724 53.106759-51.447172 97.597793-94.313931 133.579034l-15.465931-18.855724v6.850207l-17.125517 5.15531v94.17269h-48.022069V751.757241c-18.891034 5.15531-36.016552 10.27531-48.022069 13.700414l-8.580414-58.226758c13.700414-3.425103 34.286345-6.850207 56.602483-11.970207v-53.071449h-13.735725l-3.425103 42.796138-39.441655-1.730207a2397.21931 2397.21931 0 0 0 8.580414-124.99862h37.711448c0 8.580414 0 20.550621-1.694897 32.556138h10.275311v-58.262069l48.022069 1.765517v56.496552h17.160827v25.67062c20.585931-25.670621 32.591448-53.071448 42.866759-83.897379l49.752276 5.12c-5.15531 12.005517-8.580414 22.245517-13.735724 32.556138h97.774344v-5.15531z m-178.387862 137.004138c30.896552-23.975724 49.752276-47.951448 66.913104-85.627586h-15.465931c-10.27531 15.430621-22.280828 30.825931-34.286345 44.526345l-24.011035-20.550621h-8.580413v42.796138l15.43062-5.12v23.975724z" fill="#1afa29" opacity=".9" p-id="1502"></path></svg>